<svg width="59" height="59" viewBox="0 0 59 59" fill="none" xmlns="http://www.w3.org/2000/svg">
<path d="M8.69867 5.56605C8.96134 5.71551 11.1386 7.90367 11.4986 8.26356L18.2434 15.045C21.3217 18.176 23.4702 21.0566 28.3095 21.1083C30.2492 21.1206 32.1511 20.5715 33.7859 19.5274C35.2412 18.6081 37.9079 15.7033 39.2632 14.3426L48.0358 5.57648C49.1741 6.51091 50.2349 7.53613 51.2075 8.64202C50.4766 9.508 48.9053 10.9831 48.0567 11.8399L40.8864 18.9918C39.8934 19.976 38.0469 21.6377 37.3544 22.7038C36.2726 24.3515 35.6862 26.2749 35.665 28.246C35.6562 30.205 36.1998 32.1266 37.2333 33.7906C37.9865 34.9986 40.6772 37.4555 41.8297 38.6065C44.983 41.7312 48.1088 44.8833 51.2069 48.063C50.2051 49.2378 49.2296 50.1476 48.1044 51.2038C43.8603 47.1887 39.6924 42.6399 35.4783 38.5353C33.5777 36.5347 31.0342 35.6626 28.2748 35.6267C23.4395 35.5636 20.9528 38.933 17.8943 41.9987L8.73842 51.2076C7.48179 50.1114 6.6682 49.3209 5.56604 48.078L14.3455 39.2753C17.9813 35.664 21.8526 32.9854 21.0718 27.137C20.5298 23.0769 18.6706 21.8892 16.0851 19.1783C12.6912 15.6194 8.94536 12.2508 5.61834 8.64577C6.53067 7.60638 7.626 6.42355 8.69867 5.56605Z" fill="currentColor"/>
<path d="M24.4163 0.0513447C24.4851 0.0377481 24.5617 0.0588647 24.6399 0.0702218C24.86 0.4794 25.6609 3.69204 25.8545 4.4005L28.1038 12.3952C28.5308 13.9405 28.9866 15.9041 29.4878 17.3722C30.9175 11.6661 32.7968 5.78896 34.2947 0C35.9775 0.287769 37.3168 0.562898 38.9623 0.99591C38.7072 1.86242 38.4731 2.81802 38.2397 3.6962C37.5882 5.73538 37.0996 7.85181 36.478 9.8993C35.8151 11.989 35.6175 14.49 33.8402 16.0736C31.6686 18.0085 28.8059 18.3994 26.2519 16.8824C25.2318 16.2721 24.4091 15.4127 23.8724 14.3967C23.301 13.3274 22.9803 11.8609 22.6884 10.6778C21.8883 7.43351 20.8289 4.22679 20.0378 0.986474C21.3104 0.59921 23.1067 0.241218 24.4163 0.0513447Z" fill="currentColor"/>
<path d="M29.1168 41.2038C30.2939 41.1208 31.4697 41.3804 32.4846 41.9473C33.5602 42.5414 34.4399 43.4041 35.0257 44.4399C35.723 45.7003 36.378 48.7288 36.7874 50.2292L38.9623 57.9944C37.2592 58.5132 36.0724 58.7198 34.3219 59C32.9562 53.327 31.0525 47.6412 29.683 41.9938C29.6095 41.8734 29.6637 41.9141 29.5175 41.8755C29.3535 42.1215 28.961 43.7453 28.8528 44.1364C27.4872 49.0746 25.9569 54.0181 24.7638 58.9949C23.1264 58.7956 21.6048 58.5049 20.0378 58.0146C21.0914 54.6321 21.9719 51.1528 22.9079 47.7381C23.1345 46.9107 23.3185 45.9935 23.6396 45.1983C23.8813 44.5982 24.2211 44.0372 24.6465 43.5354C25.8154 42.1463 27.2606 41.4107 29.1168 41.2038Z" fill="currentColor"/>
<path d="M58.0092 20.0377C58.3151 20.3242 58.9128 23.7713 59 24.3672C57.3135 24.8892 55.3072 25.3654 53.5892 25.8035L46.5254 27.6321C45.0718 28.0069 42.8616 28.5101 41.5249 28.9966C43.2331 29.5089 45.4048 29.9713 47.1741 30.4288C51.1078 31.4703 55.0491 32.4828 58.9979 33.4661C58.9008 34.4927 58.5904 35.7218 58.3503 36.7359C58.2486 37.1088 58.1404 37.48 58.0259 37.8491C55.3489 37.0404 52.3694 36.4065 49.6585 35.6562C48.2552 35.2678 45.5767 34.7701 44.364 34.1139C42.928 33.3288 41.8629 32.0109 41.4011 30.448C40.9948 29.0129 41.1759 27.4766 41.9049 26.1739C43.5063 23.3432 46.5291 23.057 49.384 22.3209C52.2668 21.5892 55.1421 20.828 58.0092 20.0377Z" fill="currentColor"/>
<path d="M0.943736 20.0377C3.53957 20.7244 6.13911 21.397 8.74236 22.0556C12.226 22.9328 16.4475 23.3164 17.5938 27.3688C18.0191 28.8685 17.8155 30.4758 17.0294 31.8237C16.5426 32.6724 15.5742 33.6988 14.6848 34.1203C13.0942 34.874 11.0464 35.2475 9.34488 35.6941C6.54782 36.4284 3.73595 37.0764 0.952595 37.8491L0.669054 36.833C0.354261 35.6415 0.152241 34.7237 0 33.4865C1.90954 32.9325 4.06412 32.461 6.01571 31.9512C9.86605 30.9273 13.7236 29.9301 17.588 28.9594C16.8596 28.7194 15.9634 28.5107 15.2098 28.3339C10.17 27.1513 5.06392 25.4675 0.0109538 24.4088C0.155946 22.813 0.519071 21.5639 0.943736 20.0377Z" fill="currentColor"/>
</svg>
