<svg width="279" height="63" viewBox="0 0 279 63" fill="none" xmlns="http://www.w3.org/2000/svg">
<path d="M88.472 49.48C85.784 49.48 83.656 48.728 82.088 47.224C80.552 45.688 79.784 43.688 79.784 41.224C79.784 38.664 80.664 36.632 82.424 35.128C84.184 33.592 86.6 32.824 89.672 32.824H96.104V30.952C96.104 28.296 94.552 26.968 91.448 26.968C90.04 26.968 88.92 27.24 88.088 27.784C87.256 28.328 86.792 29.096 86.696 30.088H80.936C81.064 27.72 82.056 25.8 83.912 24.328C85.8 22.856 88.328 22.12 91.496 22.12C94.856 22.12 97.464 22.904 99.32 24.472C101.176 26.04 102.104 28.248 102.104 31.096V49H96.248V44.056C96.024 45.752 95.224 47.08 93.848 48.04C92.472 49 90.68 49.48 88.472 49.48ZM90.392 44.584C92.152 44.584 93.544 44.152 94.568 43.288C95.592 42.424 96.104 41.272 96.104 39.832V36.712H89.96C88.648 36.712 87.608 37.08 86.84 37.816C86.072 38.552 85.688 39.496 85.688 40.648C85.688 41.832 86.088 42.792 86.888 43.528C87.72 44.232 88.888 44.584 90.392 44.584ZM117.781 49.48C115.221 49.48 113.141 48.568 111.541 46.744C109.973 44.92 109.189 42.472 109.189 39.4V32.248C109.189 29.144 109.973 26.68 111.541 24.856C113.109 23.032 115.189 22.12 117.781 22.12C119.605 22.12 121.141 22.584 122.389 23.512C123.669 24.44 124.565 25.736 125.077 27.4L124.885 21.352V13.96H130.885V49H125.029V44.2C124.549 45.864 123.685 47.16 122.437 48.088C121.189 49.016 119.637 49.48 117.781 49.48ZM120.037 44.296C121.573 44.296 122.757 43.832 123.589 42.904C124.453 41.976 124.885 40.664 124.885 38.968V32.632C124.885 30.936 124.453 29.624 123.589 28.696C122.757 27.768 121.573 27.304 120.037 27.304C118.501 27.304 117.301 27.72 116.437 28.552C115.605 29.384 115.189 30.664 115.189 32.392V39.208C115.189 40.936 115.605 42.216 116.437 43.048C117.301 43.88 118.501 44.296 120.037 44.296ZM145.171 49L136.291 22.6H142.579L147.667 38.632C147.987 39.592 148.259 40.568 148.483 41.56C148.739 42.52 148.915 43.352 149.011 44.056C149.139 43.352 149.299 42.52 149.491 41.56C149.715 40.568 149.971 39.608 150.259 38.68L155.299 22.6H161.635L152.803 49H145.171ZM166.992 49V43.576H176.016V28.024H167.952V22.6H182.016V43.576H190.128V49H166.992ZM178.608 18.184C177.392 18.184 176.432 17.88 175.728 17.272C175.024 16.632 174.672 15.784 174.672 14.728C174.672 13.672 175.024 12.84 175.728 12.232C176.432 11.592 177.392 11.272 178.608 11.272C179.824 11.272 180.784 11.592 181.488 12.232C182.192 12.84 182.544 13.672 182.544 14.728C182.544 15.784 182.192 16.632 181.488 17.272C180.784 17.88 179.824 18.184 178.608 18.184ZM205.421 49.432C202.285 49.432 199.805 48.728 197.981 47.32C196.157 45.88 195.245 43.944 195.245 41.512H201.149C201.149 42.536 201.517 43.32 202.253 43.864C203.021 44.408 204.077 44.68 205.421 44.68H207.533C208.973 44.68 210.077 44.408 210.845 43.864C211.645 43.32 212.045 42.536 212.045 41.512C212.045 40.552 211.773 39.848 211.229 39.4C210.685 38.92 209.853 38.6 208.733 38.44L202.157 37.576C200.045 37.288 198.413 36.472 197.261 35.128C196.141 33.784 195.581 32.04 195.581 29.896C195.581 27.4 196.413 25.496 198.077 24.184C199.741 22.84 202.141 22.168 205.277 22.168H207.485C210.429 22.168 212.797 22.84 214.589 24.184C216.381 25.528 217.309 27.32 217.373 29.56H211.421C211.389 28.728 211.021 28.072 210.317 27.592C209.613 27.08 208.669 26.824 207.485 26.824H205.277C203.997 26.824 203.021 27.096 202.349 27.64C201.677 28.152 201.341 28.856 201.341 29.752C201.341 30.552 201.581 31.144 202.061 31.528C202.573 31.912 203.309 32.152 204.269 32.248L210.461 33.112C212.893 33.4 214.717 34.264 215.933 35.704C217.181 37.112 217.805 39.016 217.805 41.416C217.805 43.976 216.925 45.96 215.165 47.368C213.437 48.744 210.893 49.432 207.533 49.432H205.421ZM235.306 49.432C231.914 49.432 229.226 48.488 227.242 46.6C225.258 44.68 224.266 42.104 224.266 38.872V32.728C224.266 29.464 225.258 26.888 227.242 25C229.226 23.112 231.914 22.168 235.306 22.168C238.698 22.168 241.386 23.112 243.37 25C245.354 26.888 246.346 29.464 246.346 32.728V38.872C246.346 42.104 245.354 44.68 243.37 46.6C241.386 48.488 238.698 49.432 235.306 49.432ZM235.306 44.2C236.906 44.2 238.138 43.768 239.002 42.904C239.898 42.008 240.346 40.728 240.346 39.064V32.536C240.346 30.872 239.898 29.608 239.002 28.744C238.138 27.848 236.906 27.4 235.306 27.4C233.706 27.4 232.458 27.848 231.562 28.744C230.698 29.608 230.266 30.872 230.266 32.536V39.064C230.266 40.728 230.698 42.008 231.562 42.904C232.458 43.768 233.706 44.2 235.306 44.2ZM254.344 49V22.6H260.2V27.736C260.52 26.008 261.304 24.648 262.552 23.656C263.832 22.632 265.48 22.12 267.496 22.12C270.184 22.12 272.28 22.984 273.784 24.712C275.288 26.44 276.04 28.856 276.04 31.96V34.456H270.04V32.248C270.04 30.648 269.624 29.432 268.792 28.6C267.96 27.736 266.776 27.304 265.24 27.304C263.64 27.304 262.424 27.784 261.592 28.744C260.76 29.704 260.344 31.064 260.344 32.824V49H254.344Z" fill="white"/>
<path d="M8.69867 7.56604C8.96133 7.7155 11.1386 9.90367 11.4986 10.2636L18.2434 17.045C21.3217 20.176 23.4702 23.0566 28.3095 23.1083C30.2492 23.1206 32.1511 22.5715 33.7859 21.5274C35.2412 20.6081 37.9079 17.7033 39.2632 16.3426L48.0358 7.57648C49.1741 8.51091 50.2349 9.53612 51.2075 10.642C50.4766 11.508 48.9053 12.9831 48.0567 13.8399L40.8864 20.9918C39.8934 21.9759 38.0469 23.6376 37.3544 24.7038C36.2726 26.3515 35.6862 28.2749 35.665 30.246C35.6562 32.205 36.1998 34.1266 37.2333 35.7906C37.9865 36.9985 40.6772 39.4555 41.8297 40.6065C44.983 43.7312 48.1088 46.8833 51.2069 50.063C50.2051 51.2378 49.2296 52.1476 48.1044 53.2038C43.8603 49.1887 39.6924 44.6399 35.4783 40.5353C33.5777 38.5347 31.0342 37.6626 28.2748 37.6267C23.4395 37.5636 20.9528 40.933 17.8943 43.9987L8.73842 53.2076C7.48179 52.1114 6.6682 51.3209 5.56604 50.078L14.3455 41.2753C17.9813 37.664 21.8526 34.9854 21.0718 29.137C20.5298 25.0769 18.6706 23.8891 16.0851 21.1783C12.6912 17.6194 8.94536 14.2508 5.61834 10.6458C6.53067 9.60637 7.626 8.42354 8.69867 7.56604Z" fill="white"/>
<path d="M24.4162 2.05134C24.4851 2.03775 24.5616 2.05886 24.6399 2.07022C24.86 2.4794 25.6608 5.69204 25.8544 6.4005L28.1037 14.3952C28.5307 15.9405 28.9866 17.9041 29.4878 19.3722C30.9174 13.6661 32.7968 7.78896 34.2946 2C35.9775 2.28777 37.3168 2.5629 38.9623 2.99591C38.7072 3.86242 38.4731 4.81802 38.2397 5.6962C37.5881 7.73538 37.0996 9.85181 36.478 11.8993C35.815 13.989 35.6175 16.49 33.8401 18.0736C31.6686 20.0085 28.8058 20.3994 26.2519 18.8824C25.2318 18.2721 24.4091 17.4127 23.8724 16.3967C23.301 15.3274 22.9803 13.8609 22.6884 12.6778C21.8882 9.43351 20.8289 6.22679 20.0377 2.98647C21.3104 2.59921 23.1067 2.24122 24.4162 2.05134Z" fill="white"/>
<path d="M29.1168 43.2038C30.2938 43.1208 31.4697 43.3804 32.4846 43.9473C33.5602 44.5414 34.4399 45.4041 35.0257 46.4399C35.723 47.7003 36.378 50.7288 36.7874 52.2292L38.9623 59.9944C37.2592 60.5132 36.0724 60.7198 34.3219 61C32.9562 55.327 31.0525 49.6412 29.683 43.9938C29.6095 43.8734 29.6637 43.9141 29.5175 43.8755C29.3535 44.1215 28.961 45.7453 28.8527 46.1364C27.4871 51.0746 25.9569 56.0181 24.7638 60.9949C23.1263 60.7955 21.6048 60.5049 20.0377 60.0146C21.0914 56.6321 21.9719 53.1528 22.9078 49.7381C23.1345 48.9107 23.3184 47.9935 23.6396 47.1983C23.8812 46.5982 24.2211 46.0372 24.6465 45.5354C25.8154 44.1463 27.2606 43.4107 29.1168 43.2038Z" fill="white"/>
<path d="M58.0092 22.0378C58.3151 22.3242 58.9128 25.7713 59 26.3672C57.3135 26.8892 55.3073 27.3654 53.5892 27.8035L46.5254 29.6321C45.0718 30.0069 42.8616 30.5101 41.5249 30.9966C43.2331 31.5089 45.4048 31.9713 47.1742 32.4288C51.1078 33.4703 55.0492 34.4828 58.9979 35.4661C58.9008 36.4927 58.5904 37.7218 58.3503 38.7359C58.2487 39.1089 58.1404 39.48 58.0259 39.8491C55.3489 39.0404 52.3694 38.4065 49.6585 37.6562C48.2552 37.2678 45.5767 36.7701 44.364 36.1139C42.928 35.3288 41.8629 34.0109 41.4011 32.448C40.9948 31.0129 41.1759 29.4766 41.9049 28.1739C43.5064 25.3432 46.5291 25.057 49.384 24.3209C52.2668 23.5892 55.1421 22.828 58.0092 22.0378Z" fill="white"/>
<path d="M0.943736 22.0378C3.53957 22.7244 6.13911 23.397 8.74236 24.0556C12.226 24.9328 16.4475 25.3164 17.5938 29.3688C18.0191 30.8685 17.8155 32.4759 17.0294 33.8237C16.5426 34.6724 15.5742 35.6989 14.6848 36.1203C13.0942 36.874 11.0464 37.2475 9.34488 37.6941C6.54782 38.4284 3.73595 39.0764 0.952595 39.8491L0.669054 38.833C0.354261 37.6415 0.152241 36.7237 0 35.4865C1.90954 34.9325 4.06412 34.461 6.01571 33.9512C9.86605 32.9273 13.7236 31.9301 17.588 30.9594C16.8596 30.7194 15.9634 30.5107 15.2098 30.3339C10.17 29.1513 5.06392 27.4675 0.0109538 26.4088C0.155946 24.813 0.519071 23.5639 0.943736 22.0378Z" fill="white"/>
</svg>
